<svg xmlns="http://www.w3.org/2000/svg" xmlns:xlink="http://www.w3.org/1999/xlink" width="500" zoomAndPan="magnify" viewBox="0 0 375 374.999991" height="500" preserveAspectRatio="xMidYMid meet" version="1.0"><defs><g/><clipPath id="a06b0ecc42"><path d="M 192 55.753906 L 283.132812 55.753906 L 283.132812 152 L 192 152 Z M 192 55.753906 " clip-rule="nonzero"/></clipPath><clipPath id="2a440151fd"><path d="M 19.882812 228 L 111 228 L 111 247 L 19.882812 247 Z M 19.882812 228 " clip-rule="nonzero"/></clipPath><clipPath id="6a1630b2fa"><path d="M 38 300 L 66 300 L 66 319.003906 L 38 319.003906 Z M 38 300 " clip-rule="nonzero"/></clipPath><clipPath id="d662f4ed18"><path d="M 19.882812 228 L 111 228 L 111 247 L 19.882812 247 Z M 19.882812 228 " clip-rule="nonzero"/></clipPath><clipPath id="d3cf5753a7"><path d="M 38 300 L 66 300 L 66 319.003906 L 38 319.003906 Z M 38 300 " clip-rule="nonzero"/></clipPath><clipPath id="973714dcc9"><path d="M 19.882812 87 L 111 87 L 111 133 L 19.882812 133 Z M 19.882812 87 " clip-rule="nonzero"/></clipPath><clipPath id="6f0e67c8af"><path d="M 19.882812 106 L 111 106 L 111 133 L 19.882812 133 Z M 19.882812 106 " clip-rule="nonzero"/></clipPath><clipPath id="659435d23d"><path d="M 192 237 L 283.132812 237 L 283.132812 274 L 192 274 Z M 192 237 " clip-rule="nonzero"/></clipPath><clipPath id="1868c515bd"><path d="M 210 282 L 261 282 L 261 319.003906 L 210 319.003906 Z M 210 282 " clip-rule="nonzero"/></clipPath></defs><path fill="#6dbbea" d="M 237.746094 210.074219 C 237.746094 260.214844 197.109375 300.851562 146.96875 300.851562 C 96.828125 300.851562 56.191406 260.214844 56.191406 210.074219 C 56.191406 159.933594 96.828125 119.296875 146.96875 119.296875 C 197.109375 119.296875 237.746094 159.933594 237.746094 210.074219 " fill-opacity="1" fill-rule="nonzero"/><path fill="#578fd3" d="M 183.277344 260 C 133.140625 260 92.503906 219.363281 92.503906 169.226562 C 92.503906 156.035156 95.375 143.550781 100.429688 132.242188 C 73.957031 148.089844 56.191406 176.972656 56.191406 210.074219 C 56.191406 260.214844 96.828125 300.851562 146.96875 300.851562 C 183.917969 300.851562 215.652344 278.742188 229.820312 247.058594 C 216.203125 255.230469 200.316406 260 183.277344 260 " fill-opacity="1" fill-rule="nonzero"/><path fill="#b9de23" d="M 208.1875 143.199219 L 160.585938 214.613281 L 205.972656 228.230469 L 187.816406 241.84375 L 187.816406 264.539062 L 169.664062 282.695312 L 171.914062 297.304688 C 209.890625 286.453125 237.746094 251.542969 237.746094 210.074219 C 237.746094 183.566406 226.308594 159.792969 208.1875 143.199219 " fill-opacity="1" fill-rule="nonzero"/><path fill="#b9de23" d="M 56.191406 210.074219 C 56.191406 253.566406 86.792969 289.875 127.625 298.738281 L 119.734375 264.539062 L 156.046875 241.84375 L 124.273438 219.152344 L 142.429688 196.457031 L 119.734375 173.761719 L 113.351562 125.804688 C 79.878906 139.171875 56.191406 171.832031 56.191406 210.074219 " fill-opacity="1" fill-rule="nonzero"/><path fill="#95d221" d="M 229.855469 247.109375 C 219.003906 271.347656 197.800781 289.910156 171.878906 297.304688 L 169.664062 282.695312 L 187.816406 264.539062 L 187.816406 259.859375 C 203.117188 259.132812 217.460938 254.59375 229.855469 247.109375 " fill-opacity="1" fill-rule="nonzero"/><path fill="#95d221" d="M 119.734375 264.539062 L 127.625 298.722656 C 86.777344 289.875 56.191406 253.566406 56.191406 210.074219 C 56.191406 176.9375 73.941406 148.074219 100.394531 132.242188 C 95.320312 143.535156 92.503906 156.070312 92.503906 169.226562 C 92.503906 204.71875 112.839844 235.410156 142.519531 250.335938 L 119.734375 264.539062 " fill-opacity="1" fill-rule="nonzero"/><g clip-path="url(#a06b0ecc42)"><path fill="#f3e305" d="M 237.746094 55.753906 L 248.0625 71.710938 L 265.792969 64.867188 L 264.765625 83.839844 L 283.132812 88.730469 L 271.148438 103.484375 L 283.132812 118.234375 L 264.765625 123.109375 L 265.792969 142.082031 L 248.0625 135.253906 L 237.746094 151.210938 L 227.425781 135.253906 L 209.695312 142.082031 L 210.722656 123.109375 L 192.355469 118.234375 L 204.339844 103.484375 L 192.355469 88.730469 L 210.722656 83.839844 L 209.695312 64.867188 L 227.425781 71.710938 L 237.746094 55.753906 " fill-opacity="1" fill-rule="nonzero"/></g><path fill="#f7b60b" d="M 231.042969 124.121094 L 219.519531 128.570312 L 220.191406 116.25 L 208.242188 113.058594 L 216.042969 103.484375 L 208.242188 93.890625 L 220.191406 90.71875 L 219.519531 78.378906 L 231.042969 82.828125 L 237.746094 72.457031 L 244.445312 82.828125 L 255.96875 78.378906 L 255.296875 90.71875 L 267.246094 93.890625 L 259.445312 103.484375 L 267.246094 113.058594 L 255.296875 116.25 L 255.96875 128.570312 L 244.445312 124.121094 L 237.746094 134.492188 L 231.042969 124.121094 " fill-opacity="1" fill-rule="nonzero"/><path fill="#f14c46" d="M 255.898438 105.679688 C 255.898438 115.714844 247.78125 123.835938 237.746094 123.835938 C 227.710938 123.835938 219.589844 115.714844 219.589844 105.679688 C 219.589844 95.648438 227.710938 87.527344 237.746094 87.527344 C 247.78125 87.527344 255.898438 95.648438 255.898438 105.679688 " fill-opacity="1" fill-rule="nonzero"/><path fill="#d2dbda" d="M 156.046875 110.21875 C 157.625 110.21875 159.183594 110.378906 160.691406 110.644531 C 166.914062 99.566406 178.757812 92.066406 192.355469 92.066406 C 205.957031 92.066406 217.796875 99.566406 224.023438 110.644531 C 225.527344 110.378906 227.089844 110.21875 228.667969 110.21875 C 238.789062 110.21875 247.621094 115.769531 252.316406 123.980469 C 252.742188 123.941406 253.1875 123.835938 253.628906 123.835938 C 264.90625 123.835938 274.054688 132.984375 274.054688 144.261719 C 274.054688 155.539062 264.90625 164.6875 253.628906 164.6875 C 249.355469 164.6875 245.386719 163.355469 242.125 161.121094 C 238.152344 163.375 233.558594 164.6875 228.667969 164.6875 C 222.355469 164.6875 216.558594 162.523438 211.949219 158.921875 C 206.292969 162.558594 199.574219 164.6875 192.355469 164.6875 C 185.140625 164.6875 178.421875 162.558594 172.765625 158.921875 C 168.15625 162.523438 162.359375 164.6875 156.046875 164.6875 C 141.011719 164.6875 128.8125 152.488281 128.8125 137.453125 C 128.8125 122.417969 141.011719 110.21875 156.046875 110.21875 " fill-opacity="1" fill-rule="nonzero"/><path fill="#8f9697" d="M 267.246094 146.53125 C 262.972656 146.53125 259.003906 145.199219 255.738281 142.96875 C 251.769531 145.21875 247.175781 146.53125 242.285156 146.53125 C 235.972656 146.53125 230.175781 144.367188 225.5625 140.769531 C 219.910156 144.402344 213.1875 146.53125 205.972656 146.53125 C 198.757812 146.53125 192.039062 144.402344 186.382812 140.769531 C 181.773438 144.367188 175.972656 146.53125 169.664062 146.53125 C 154.628906 146.53125 142.429688 134.332031 142.429688 119.296875 C 142.429688 117.3125 142.660156 115.378906 143.066406 113.519531 C 134.574219 118.128906 128.8125 127.117188 128.8125 137.453125 C 128.8125 152.488281 141.011719 164.6875 156.046875 164.6875 C 162.359375 164.6875 168.15625 162.523438 172.765625 158.921875 C 178.421875 162.558594 185.140625 164.6875 192.355469 164.6875 C 199.574219 164.6875 206.292969 162.558594 211.949219 158.921875 C 216.558594 162.523438 222.355469 164.6875 228.667969 164.6875 C 233.558594 164.6875 238.152344 163.375 242.125 161.121094 C 245.386719 163.355469 249.355469 164.6875 253.628906 164.6875 C 264.550781 164.6875 273.382812 156.085938 273.949219 145.308594 C 271.839844 146.050781 269.605469 146.53125 267.246094 146.53125 " fill-opacity="1" fill-rule="nonzero"/><path fill="#f3e305" d="M 196.894531 178.300781 L 205.972656 141.992188 L 165.125 191.917969 L 187.816406 196.457031 L 178.738281 232.769531 L 219.589844 182.839844 L 196.894531 178.300781 " fill-opacity="1" fill-rule="nonzero"/><path fill="#f7b60b" d="M 201.433594 187.378906 L 183.277344 187.378906 L 205.972656 141.992188 L 165.125 191.917969 L 187.816406 196.457031 L 178.738281 232.769531 L 201.433594 187.378906 " fill-opacity="1" fill-rule="nonzero"/><path fill="#d2dbda" d="M 92.503906 264.539062 L 38.039062 264.539062 C 33.019531 264.539062 28.960938 260.480469 28.960938 255.460938 C 28.960938 250.445312 33.019531 246.382812 38.039062 246.382812 L 92.503906 246.382812 C 97.519531 246.382812 101.582031 250.445312 101.582031 255.460938 C 101.582031 260.480469 97.519531 264.539062 92.503906 264.539062 " fill-opacity="1" fill-rule="nonzero"/><g clip-path="url(#2a440151fd)"><path fill="#d2dbda" d="M 101.582031 246.382812 L 28.960938 246.382812 C 23.941406 246.382812 19.882812 242.324219 19.882812 237.304688 C 19.882812 232.289062 23.941406 228.230469 28.960938 228.230469 L 101.582031 228.230469 C 106.597656 228.230469 110.660156 232.289062 110.660156 237.304688 C 110.660156 242.324219 106.597656 246.382812 101.582031 246.382812 " fill-opacity="1" fill-rule="nonzero"/></g><path fill="#d2dbda" d="M 83.425781 282.695312 L 47.113281 282.695312 C 42.097656 282.695312 38.039062 278.632812 38.039062 273.617188 C 38.039062 268.597656 42.097656 264.539062 47.113281 264.539062 L 83.425781 264.539062 C 88.441406 264.539062 92.503906 268.597656 92.503906 273.617188 C 92.503906 278.632812 88.441406 282.695312 83.425781 282.695312 " fill-opacity="1" fill-rule="nonzero"/><path fill="#d2dbda" d="M 69.808594 300.851562 L 51.652344 300.851562 C 46.636719 300.851562 42.578125 296.789062 42.578125 291.773438 C 42.578125 286.753906 46.636719 282.695312 51.652344 282.695312 L 69.808594 282.695312 C 74.828125 282.695312 78.886719 286.753906 78.886719 291.773438 C 78.886719 296.789062 74.828125 300.851562 69.808594 300.851562 " fill-opacity="1" fill-rule="nonzero"/><g clip-path="url(#6a1630b2fa)"><path fill="#d2dbda" d="M 56.191406 319.003906 L 47.113281 319.003906 C 42.097656 319.003906 38.039062 314.945312 38.039062 309.925781 C 38.039062 304.910156 42.097656 300.851562 47.113281 300.851562 L 56.191406 300.851562 C 61.210938 300.851562 65.269531 304.910156 65.269531 309.925781 C 65.269531 314.945312 61.210938 319.003906 56.191406 319.003906 " fill-opacity="1" fill-rule="nonzero"/></g><path fill="#8f9697" d="M 38.039062 246.382812 C 33.019531 246.382812 28.960938 250.445312 28.960938 255.460938 C 28.960938 260.480469 33.019531 264.539062 38.039062 264.539062 L 92.503906 264.539062 C 97.519531 264.539062 101.582031 260.480469 101.582031 255.460938 L 47.113281 255.460938 C 42.097656 255.460938 38.039062 251.402344 38.039062 246.382812 " fill-opacity="1" fill-rule="nonzero"/><g clip-path="url(#d662f4ed18)"><path fill="#8f9697" d="M 28.960938 228.230469 C 23.941406 228.230469 19.882812 232.289062 19.882812 237.304688 C 19.882812 242.324219 23.941406 246.382812 28.960938 246.382812 L 101.582031 246.382812 C 106.597656 246.382812 110.660156 242.324219 110.660156 237.304688 L 38.039062 237.304688 C 33.019531 237.304688 28.960938 233.246094 28.960938 228.230469 " fill-opacity="1" fill-rule="nonzero"/></g><path fill="#8f9697" d="M 47.113281 264.539062 C 42.097656 264.539062 38.039062 268.597656 38.039062 273.617188 C 38.039062 278.632812 42.097656 282.695312 47.113281 282.695312 L 83.425781 282.695312 C 88.441406 282.695312 92.503906 278.632812 92.503906 273.617188 L 56.191406 273.617188 C 51.175781 273.617188 47.113281 269.558594 47.113281 264.539062 " fill-opacity="1" fill-rule="nonzero"/><path fill="#8f9697" d="M 51.652344 282.695312 C 46.636719 282.695312 42.578125 286.753906 42.578125 291.773438 C 42.578125 296.789062 46.636719 300.851562 51.652344 300.851562 L 69.808594 300.851562 C 74.828125 300.851562 78.886719 296.789062 78.886719 291.773438 L 60.730469 291.773438 C 55.714844 291.773438 51.652344 287.710938 51.652344 282.695312 " fill-opacity="1" fill-rule="nonzero"/><g clip-path="url(#d3cf5753a7)"><path fill="#8f9697" d="M 47.113281 300.851562 C 42.097656 300.851562 38.039062 304.910156 38.039062 309.925781 C 38.039062 314.945312 42.097656 319.003906 47.113281 319.003906 L 56.191406 319.003906 C 61.210938 319.003906 65.269531 314.945312 65.269531 309.925781 L 56.191406 309.925781 C 51.175781 309.925781 47.113281 305.867188 47.113281 300.851562 " fill-opacity="1" fill-rule="nonzero"/></g><g clip-path="url(#973714dcc9)"><path fill="#d2dbda" d="M 97.042969 105.679688 C 96.226562 105.679688 95.429688 105.789062 94.648438 105.929688 C 91.546875 100.378906 85.695312 96.605469 78.886719 96.605469 C 77.433594 96.605469 76.03125 96.816406 74.683594 97.136719 C 70.570312 91.339844 63.835938 87.527344 56.191406 87.527344 C 45.199219 87.527344 36.035156 95.34375 33.960938 105.734375 C 33.800781 105.71875 33.660156 105.679688 33.5 105.679688 C 25.980469 105.679688 19.882812 111.78125 19.882812 119.296875 C 19.882812 126.816406 25.980469 132.914062 33.5 132.914062 C 37.3125 132.914062 40.75 131.335938 43.230469 128.800781 C 46.902344 131.371094 51.371094 132.914062 56.191406 132.914062 C 60.625 132.914062 64.738281 131.585938 68.230469 129.386719 C 71.226562 131.585938 74.878906 132.914062 78.886719 132.914062 C 82.503906 132.914062 85.871094 131.832031 88.707031 129.988281 C 91.015625 131.796875 93.886719 132.914062 97.042969 132.914062 C 104.558594 132.914062 110.660156 126.816406 110.660156 119.296875 C 110.660156 111.78125 104.558594 105.679688 97.042969 105.679688 " fill-opacity="1" fill-rule="nonzero"/></g><g clip-path="url(#6f0e67c8af)"><path fill="#8f9697" d="M 106.121094 119.296875 C 102.964844 119.296875 100.089844 118.179688 97.785156 116.371094 C 94.949219 118.214844 91.582031 119.296875 87.964844 119.296875 C 83.957031 119.296875 80.304688 117.96875 77.308594 115.769531 C 73.816406 117.96875 69.703125 119.296875 65.269531 119.296875 C 60.429688 119.296875 55.980469 117.753906 52.308594 115.183594 C 49.828125 117.71875 46.386719 119.296875 42.578125 119.296875 C 35.34375 119.296875 29.472656 113.625 29.046875 106.496094 C 23.730469 108.339844 19.882812 113.339844 19.882812 119.296875 C 19.882812 126.816406 25.980469 132.914062 33.5 132.914062 C 37.3125 132.914062 40.75 131.335938 43.230469 128.800781 C 46.902344 131.371094 51.371094 132.914062 56.191406 132.914062 C 60.625 132.914062 64.738281 131.585938 68.230469 129.386719 C 71.226562 131.585938 74.878906 132.914062 78.886719 132.914062 C 82.503906 132.914062 85.871094 131.832031 88.707031 129.988281 C 91.015625 131.796875 93.886719 132.914062 97.042969 132.914062 C 104.558594 132.914062 110.660156 126.816406 110.660156 119.296875 C 110.660156 119.015625 110.585938 118.765625 110.570312 118.480469 C 109.167969 118.980469 107.679688 119.296875 106.121094 119.296875 " fill-opacity="1" fill-rule="nonzero"/></g><g clip-path="url(#659435d23d)"><path fill="#90d9f6" d="M 264.976562 273.617188 L 196.894531 273.617188 C 194.394531 273.617188 192.355469 271.578125 192.355469 269.078125 C 192.355469 266.578125 194.394531 264.539062 196.894531 264.539062 L 264.976562 264.539062 C 269.976562 264.539062 274.054688 260.460938 274.054688 255.460938 C 274.054688 250.460938 269.976562 246.382812 264.976562 246.382812 C 262.476562 246.382812 260.4375 244.34375 260.4375 241.84375 C 260.4375 239.34375 262.476562 237.304688 264.976562 237.304688 C 274.996094 237.304688 283.132812 245.445312 283.132812 255.460938 C 283.132812 265.480469 274.996094 273.617188 264.976562 273.617188 " fill-opacity="1" fill-rule="nonzero"/></g><path fill="#90d9f6" d="M 215.050781 309.925781 L 183.277344 309.925781 C 180.777344 309.925781 178.738281 307.886719 178.738281 305.386719 C 178.738281 302.886719 180.777344 300.851562 183.277344 300.851562 L 215.050781 300.851562 C 217.550781 300.851562 219.589844 302.886719 219.589844 305.386719 C 219.589844 307.886719 217.550781 309.925781 215.050781 309.925781 " fill-opacity="1" fill-rule="nonzero"/><path fill="#90d9f6" d="M 233.207031 255.460938 L 201.433594 255.460938 C 198.933594 255.460938 196.894531 253.421875 196.894531 250.921875 C 196.894531 248.421875 198.933594 246.382812 201.433594 246.382812 L 233.207031 246.382812 C 235.707031 246.382812 237.746094 248.421875 237.746094 250.921875 C 237.746094 253.421875 235.707031 255.460938 233.207031 255.460938 " fill-opacity="1" fill-rule="nonzero"/><g clip-path="url(#1868c515bd)"><path fill="#90d9f6" d="M 242.285156 319.003906 C 239.785156 319.003906 237.746094 316.964844 237.746094 314.464844 C 237.746094 311.964844 239.785156 309.925781 242.285156 309.925781 C 247.28125 309.925781 251.359375 305.847656 251.359375 300.851562 C 251.359375 295.851562 247.28125 291.773438 242.285156 291.773438 L 215.050781 291.773438 C 212.550781 291.773438 210.511719 289.734375 210.511719 287.234375 C 210.511719 284.734375 212.550781 282.695312 215.050781 282.695312 L 242.285156 282.695312 C 252.300781 282.695312 260.4375 290.832031 260.4375 300.851562 C 260.4375 310.867188 252.300781 319.003906 242.285156 319.003906 " fill-opacity="1" fill-rule="nonzero"/></g><path fill="#90d9f6" d="M 151.507812 273.617188 L 142.429688 273.617188 C 139.929688 273.617188 137.890625 271.578125 137.890625 269.078125 C 137.890625 266.578125 139.929688 264.539062 142.429688 264.539062 L 151.507812 264.539062 C 154.007812 264.539062 156.046875 266.578125 156.046875 269.078125 C 156.046875 271.578125 154.007812 273.617188 151.507812 273.617188 " fill-opacity="1" fill-rule="nonzero"/><path fill="#90d9f6" d="M 169.664062 255.460938 L 160.585938 255.460938 C 158.085938 255.460938 156.046875 253.421875 156.046875 250.921875 C 156.046875 248.421875 158.085938 246.382812 160.585938 246.382812 L 169.664062 246.382812 C 172.164062 246.382812 174.203125 248.421875 174.203125 250.921875 C 174.203125 253.421875 172.164062 255.460938 169.664062 255.460938 " fill-opacity="1" fill-rule="nonzero"/><path fill="#90d9f6" d="M 42.578125 160.148438 C 40.910156 160.148438 39.3125 159.226562 38.515625 157.648438 L 33.976562 148.570312 C 32.859375 146.316406 33.765625 143.585938 36 142.46875 C 38.25 141.335938 40.980469 142.257812 42.097656 144.492188 L 46.636719 153.570312 C 47.753906 155.820312 46.847656 158.550781 44.613281 159.667969 C 43.960938 159.988281 43.269531 160.148438 42.578125 160.148438 " fill-opacity="1" fill-rule="nonzero"/><path fill="#90d9f6" d="M 60.730469 160.148438 C 59.066406 160.148438 57.46875 159.226562 56.671875 157.648438 L 52.132812 148.570312 C 51.015625 146.316406 51.917969 143.585938 54.152344 142.46875 C 56.40625 141.335938 59.136719 142.257812 60.253906 144.492188 L 64.792969 153.570312 C 65.910156 155.820312 65.003906 158.550781 62.769531 159.667969 C 62.113281 159.988281 61.421875 160.148438 60.730469 160.148438 " fill-opacity="1" fill-rule="nonzero"/><path fill="#90d9f6" d="M 78.886719 160.148438 C 77.21875 160.148438 75.625 159.226562 74.828125 157.648438 L 70.289062 148.570312 C 69.171875 146.316406 70.074219 143.585938 72.308594 142.46875 C 74.5625 141.335938 77.289062 142.257812 78.40625 144.492188 L 82.945312 153.570312 C 84.0625 155.820312 83.160156 158.550781 80.925781 159.667969 C 80.269531 159.988281 79.578125 160.148438 78.886719 160.148438 " fill-opacity="1" fill-rule="nonzero"/><path fill="#90d9f6" d="M 97.042969 160.148438 C 95.375 160.148438 93.78125 159.226562 92.980469 157.648438 L 88.441406 148.570312 C 87.324219 146.316406 88.230469 143.585938 90.464844 142.46875 C 92.714844 141.335938 95.445312 142.257812 96.5625 144.492188 L 101.101562 153.570312 C 102.21875 155.820312 101.316406 158.550781 99.082031 159.667969 C 98.425781 159.988281 97.734375 160.148438 97.042969 160.148438 " fill-opacity="1" fill-rule="nonzero"/><path fill="#90d9f6" d="M 51.652344 182.839844 C 49.988281 182.839844 48.390625 181.917969 47.59375 180.339844 L 43.054688 171.261719 C 41.9375 169.011719 42.84375 166.28125 45.078125 165.164062 C 47.328125 164.046875 50.058594 164.953125 51.175781 167.1875 L 55.714844 176.261719 C 56.832031 178.515625 55.925781 181.246094 53.691406 182.363281 C 53.035156 182.679688 52.34375 182.839844 51.652344 182.839844 " fill-opacity="1" fill-rule="nonzero"/><path fill="#90d9f6" d="M 69.808594 182.839844 C 68.140625 182.839844 66.546875 181.917969 65.75 180.339844 L 61.210938 171.261719 C 60.09375 169.011719 60.996094 166.28125 63.230469 165.164062 C 65.484375 164.046875 68.214844 164.953125 69.332031 167.1875 L 73.871094 176.261719 C 74.984375 178.515625 74.082031 181.246094 71.847656 182.363281 C 71.191406 182.679688 70.5 182.839844 69.808594 182.839844 " fill-opacity="1" fill-rule="nonzero"/><path fill="#90d9f6" d="M 87.964844 182.839844 C 86.296875 182.839844 84.703125 181.917969 83.902344 180.339844 L 79.367188 171.261719 C 78.25 169.011719 79.152344 166.28125 81.386719 165.164062 C 83.636719 164.046875 86.367188 164.953125 87.484375 167.1875 L 92.023438 176.261719 C 93.140625 178.515625 92.238281 181.246094 90.003906 182.363281 C 89.347656 182.679688 88.65625 182.839844 87.964844 182.839844 " fill-opacity="1" fill-rule="nonzero"/><path fill="#90d9f6" d="M 106.121094 182.839844 C 104.453125 182.839844 102.855469 181.917969 102.058594 180.339844 L 97.519531 171.261719 C 96.402344 169.011719 97.308594 166.28125 99.542969 165.164062 C 101.792969 164.046875 104.523438 164.953125 105.640625 167.1875 L 110.179688 176.261719 C 111.296875 178.515625 110.390625 181.246094 108.160156 182.363281 C 107.503906 182.679688 106.8125 182.839844 106.121094 182.839844 " fill-opacity="1" fill-rule="nonzero"/><path fill="#90d9f6" d="M 60.730469 210.074219 C 59.066406 210.074219 57.46875 209.152344 56.671875 207.574219 L 52.132812 198.496094 C 51.015625 196.246094 51.917969 193.515625 54.152344 192.398438 C 56.40625 191.28125 59.136719 192.183594 60.253906 194.417969 L 64.792969 203.496094 C 65.910156 205.746094 65.003906 208.476562 62.769531 209.59375 C 62.113281 209.914062 61.421875 210.074219 60.730469 210.074219 " fill-opacity="1" fill-rule="nonzero"/><path fill="#90d9f6" d="M 78.886719 210.074219 C 77.21875 210.074219 75.625 209.152344 74.828125 207.574219 L 70.289062 198.496094 C 69.171875 196.246094 70.074219 193.515625 72.308594 192.398438 C 74.5625 191.28125 77.289062 192.183594 78.40625 194.417969 L 82.945312 203.496094 C 84.0625 205.746094 83.160156 208.476562 80.925781 209.59375 C 80.269531 209.914062 79.578125 210.074219 78.886719 210.074219 " fill-opacity="1" fill-rule="nonzero"/><path fill="#90d9f6" d="M 97.042969 210.074219 C 95.375 210.074219 93.78125 209.152344 92.980469 207.574219 L 88.441406 198.496094 C 87.324219 196.246094 88.230469 193.515625 90.464844 192.398438 C 92.714844 191.28125 95.445312 192.183594 96.5625 194.417969 L 101.101562 203.496094 C 102.21875 205.746094 101.316406 208.476562 99.082031 209.59375 C 98.425781 209.914062 97.734375 210.074219 97.042969 210.074219 " fill-opacity="1" fill-rule="nonzero"/><path fill="#90d9f6" d="M 110.660156 205.535156 C 108.992188 205.535156 107.394531 204.613281 106.597656 203.035156 L 102.058594 193.957031 C 100.941406 191.707031 101.847656 188.976562 104.082031 187.859375 C 106.332031 186.722656 109.0625 187.644531 110.179688 189.878906 L 114.71875 198.957031 C 115.835938 201.207031 114.929688 203.9375 112.695312 205.054688 C 112.042969 205.375 111.351562 205.535156 110.660156 205.535156 " fill-opacity="1" fill-rule="nonzero"/><g fill="#545454" fill-opacity="1"><g transform="translate(132.229829, 215.891933)"><g><path d="M 1.3125 0 L 5.015625 -34.359375 L 12.0625 -34.359375 L 10.140625 -15.90625 L 16.328125 -34.359375 L 23.515625 -34.359375 L 21.640625 -15.90625 L 27.78125 -34.359375 L 35.53125 -34.359375 L 23.234375 0 L 15.015625 0 L 17.078125 -19.53125 L 10.421875 0 Z M 1.3125 0 "/></g></g></g><g fill="#545454" fill-opacity="1"><g transform="translate(164.896023, 215.891933)"><g><path d="M 7.28125 0.375 C 3.738281 0.375 1.421875 -0.59375 0.328125 -2.53125 C -0.765625 -4.46875 -0.859375 -7.363281 0.046875 -11.21875 L 3.234375 -25.015625 C 3.953125 -28.179688 5.40625 -30.59375 7.59375 -32.25 C 9.789062 -33.90625 12.515625 -34.734375 15.765625 -34.734375 C 22.367188 -34.734375 24.9375 -31.492188 23.46875 -25.015625 L 22.859375 -22.53125 C 22.296875 -20.03125 21.796875 -17.992188 21.359375 -16.421875 L 9.4375 -16.421875 L 7.9375 -9.765625 C 7.65625 -8.578125 7.5625 -7.644531 7.65625 -6.96875 C 7.75 -6.300781 8.203125 -5.96875 9.015625 -5.96875 C 9.640625 -5.96875 10.125 -6.15625 10.46875 -6.53125 C 10.8125 -6.90625 11.066406 -7.332031 11.234375 -7.8125 C 11.410156 -8.300781 11.59375 -9.015625 11.78125 -9.953125 L 12.578125 -13.28125 L 20.75 -13.28125 L 20.28125 -11.3125 C 19.375 -7.300781 17.925781 -4.347656 15.9375 -2.453125 C 13.945312 -0.566406 11.0625 0.375 7.28125 0.375 Z M 14.21875 -20.515625 L 15.25 -24.921875 C 15.8125 -27.390625 15.484375 -28.625 14.265625 -28.625 C 12.890625 -28.625 11.921875 -27.390625 11.359375 -24.921875 L 10.328125 -20.515625 Z M 14.21875 -20.515625 "/></g></g></g><g fill="#545454" fill-opacity="1"><g transform="translate(187.799916, 215.891933)"><g><path d="M 3.890625 0.375 C 1.234375 0.375 -0.378906 -0.503906 -0.953125 -2.265625 C -1.535156 -4.035156 -1.453125 -6.566406 -0.703125 -9.859375 C -0.078125 -12.546875 0.75 -14.609375 1.78125 -16.046875 C 2.8125 -17.492188 4.03125 -18.550781 5.4375 -19.21875 C 6.851562 -19.894531 8.9375 -20.640625 11.6875 -21.453125 L 14.125 -22.203125 L 14.125 -22.296875 L 14.921875 -25.71875 C 15.140625 -26.625 15.125 -27.316406 14.875 -27.796875 C 14.625 -28.285156 14.25 -28.53125 13.75 -28.53125 C 13.3125 -28.53125 12.878906 -28.328125 12.453125 -27.921875 C 12.035156 -27.515625 11.75 -26.96875 11.59375 -26.28125 L 11.125 -24.21875 L 3.140625 -24.21875 L 3.375 -25.34375 C 4.15625 -28.726562 5.5 -31.140625 7.40625 -32.578125 C 9.320312 -34.015625 12.0625 -34.734375 15.625 -34.734375 C 18.476562 -34.734375 20.625 -33.988281 22.0625 -32.5 C 23.5 -31.019531 23.90625 -28.914062 23.28125 -26.1875 L 17.265625 0 L 9.109375 0 L 10.046875 -4.078125 C 9.296875 -2.671875 8.382812 -1.578125 7.3125 -0.796875 C 6.25 -0.015625 5.109375 0.375 3.890625 0.375 Z M 8.59375 -6.015625 C 9.21875 -6.015625 9.722656 -6.269531 10.109375 -6.78125 C 10.503906 -7.300781 10.78125 -7.9375 10.9375 -8.6875 L 13.140625 -18.265625 C 11.828125 -17.785156 10.796875 -17.1875 10.046875 -16.46875 C 9.296875 -15.75 8.78125 -14.75 8.5 -13.46875 L 7.46875 -9.0625 C 7 -7.03125 7.375 -6.015625 8.59375 -6.015625 Z M 8.59375 -6.015625 "/></g></g></g><g fill="#545454" fill-opacity="1"><g transform="translate(210.469128, 215.891933)"><g><path d="M 4.078125 0.375 C 1.921875 0.375 0.539062 -0.078125 -0.0625 -0.984375 C -0.675781 -1.890625 -0.75 -3.34375 -0.28125 -5.34375 L 4.6875 -26.796875 L 2.390625 -26.796875 L 3.796875 -33.046875 L 6.109375 -33.046875 L 7.796875 -40.3125 L 15.765625 -40.3125 L 14.078125 -33.046875 L 16.421875 -33.046875 L 15.015625 -26.796875 L 12.671875 -26.796875 L 8.21875 -7.515625 C 8.0625 -6.921875 8 -6.476562 8.03125 -6.1875 C 8.0625 -5.90625 8.28125 -5.765625 8.6875 -5.765625 C 9 -5.765625 9.300781 -5.78125 9.59375 -5.8125 C 9.894531 -5.84375 10.09375 -5.859375 10.1875 -5.859375 L 8.875 -0.234375 C 8.375 -0.109375 7.660156 0.0195312 6.734375 0.15625 C 5.804688 0.300781 4.921875 0.375 4.078125 0.375 Z M 4.078125 0.375 "/></g></g></g><g fill="#545454" fill-opacity="1"><g transform="translate(224.784052, 215.891933)"><g><path d="M 6.390625 -40.546875 L 14.828125 -40.546875 L 12.625 -30.984375 C 14.0625 -33.484375 16.019531 -34.734375 18.5 -34.734375 C 20.8125 -34.734375 22.390625 -34 23.234375 -32.53125 C 24.078125 -31.0625 24.203125 -29.039062 23.609375 -26.46875 L 17.5 0 L 9.296875 0 L 15.296875 -25.953125 C 15.453125 -26.703125 15.410156 -27.3125 15.171875 -27.78125 C 14.941406 -28.25 14.5 -28.484375 13.84375 -28.484375 C 13.28125 -28.484375 12.78125 -28.238281 12.34375 -27.75 C 11.90625 -27.269531 11.609375 -26.6875 11.453125 -26 L 5.4375 0 L -3 0 Z M 6.390625 -40.546875 "/></g></g></g><g fill="#545454" fill-opacity="1"><g transform="translate(248.485821, 215.891933)"><g><path d="M 7.28125 0.375 C 3.738281 0.375 1.421875 -0.59375 0.328125 -2.53125 C -0.765625 -4.46875 -0.859375 -7.363281 0.046875 -11.21875 L 3.234375 -25.015625 C 3.953125 -28.179688 5.40625 -30.59375 7.59375 -32.25 C 9.789062 -33.90625 12.515625 -34.734375 15.765625 -34.734375 C 22.367188 -34.734375 24.9375 -31.492188 23.46875 -25.015625 L 22.859375 -22.53125 C 22.296875 -20.03125 21.796875 -17.992188 21.359375 -16.421875 L 9.4375 -16.421875 L 7.9375 -9.765625 C 7.65625 -8.578125 7.5625 -7.644531 7.65625 -6.96875 C 7.75 -6.300781 8.203125 -5.96875 9.015625 -5.96875 C 9.640625 -5.96875 10.125 -6.15625 10.46875 -6.53125 C 10.8125 -6.90625 11.066406 -7.332031 11.234375 -7.8125 C 11.410156 -8.300781 11.59375 -9.015625 11.78125 -9.953125 L 12.578125 -13.28125 L 20.75 -13.28125 L 20.28125 -11.3125 C 19.375 -7.300781 17.925781 -4.347656 15.9375 -2.453125 C 13.945312 -0.566406 11.0625 0.375 7.28125 0.375 Z M 14.21875 -20.515625 L 15.25 -24.921875 C 15.8125 -27.390625 15.484375 -28.625 14.265625 -28.625 C 12.890625 -28.625 11.921875 -27.390625 11.359375 -24.921875 L 10.328125 -20.515625 Z M 14.21875 -20.515625 "/></g></g></g><g fill="#545454" fill-opacity="1"><g transform="translate(271.389713, 215.891933)"><g><path d="M 5.578125 -34.359375 L 13.796875 -34.359375 L 12.953125 -30.5625 C 13.671875 -31.90625 14.625 -32.941406 15.8125 -33.671875 C 17 -34.410156 18.347656 -34.78125 19.859375 -34.78125 L 18.265625 -27.921875 C 17.097656 -27.921875 15.78125 -27.753906 14.3125 -27.421875 C 12.84375 -27.097656 12.0625 -26.71875 11.96875 -26.28125 L 5.859375 0 L -2.34375 0 Z M 5.578125 -34.359375 "/></g></g></g><g fill="#545454" fill-opacity="1"><g transform="translate(287.535071, 215.891933)"><g/></g></g><g fill="#545454" fill-opacity="1"><g transform="translate(298.517669, 215.891933)"><g><path d="M 3.890625 0.375 C 1.234375 0.375 -0.378906 -0.503906 -0.953125 -2.265625 C -1.535156 -4.035156 -1.453125 -6.566406 -0.703125 -9.859375 C -0.078125 -12.546875 0.75 -14.609375 1.78125 -16.046875 C 2.8125 -17.492188 4.03125 -18.550781 5.4375 -19.21875 C 6.851562 -19.894531 8.9375 -20.640625 11.6875 -21.453125 L 14.125 -22.203125 L 14.125 -22.296875 L 14.921875 -25.71875 C 15.140625 -26.625 15.125 -27.316406 14.875 -27.796875 C 14.625 -28.285156 14.25 -28.53125 13.75 -28.53125 C 13.3125 -28.53125 12.878906 -28.328125 12.453125 -27.921875 C 12.035156 -27.515625 11.75 -26.96875 11.59375 -26.28125 L 11.125 -24.21875 L 3.140625 -24.21875 L 3.375 -25.34375 C 4.15625 -28.726562 5.5 -31.140625 7.40625 -32.578125 C 9.320312 -34.015625 12.0625 -34.734375 15.625 -34.734375 C 18.476562 -34.734375 20.625 -33.988281 22.0625 -32.5 C 23.5 -31.019531 23.90625 -28.914062 23.28125 -26.1875 L 17.265625 0 L 9.109375 0 L 10.046875 -4.078125 C 9.296875 -2.671875 8.382812 -1.578125 7.3125 -0.796875 C 6.25 -0.015625 5.109375 0.375 3.890625 0.375 Z M 8.59375 -6.015625 C 9.21875 -6.015625 9.722656 -6.269531 10.109375 -6.78125 C 10.503906 -7.300781 10.78125 -7.9375 10.9375 -8.6875 L 13.140625 -18.265625 C 11.828125 -17.785156 10.796875 -17.1875 10.046875 -16.46875 C 9.296875 -15.75 8.78125 -14.75 8.5 -13.46875 L 7.46875 -9.0625 C 7 -7.03125 7.375 -6.015625 8.59375 -6.015625 Z M 8.59375 -6.015625 "/></g></g></g><g fill="#545454" fill-opacity="1"><g transform="translate(321.186881, 215.891933)"><g><path d="M 6.390625 -34.359375 L 14.734375 -34.359375 L 14.3125 -32.53125 C 15.84375 -34 17.660156 -34.734375 19.765625 -34.734375 C 22.421875 -34.734375 24.066406 -33.84375 24.703125 -32.0625 C 25.347656 -30.28125 25.3125 -27.804688 24.59375 -24.640625 L 21.640625 -11.921875 C 21.015625 -9.234375 20.347656 -7.035156 19.640625 -5.328125 C 18.941406 -3.617188 17.941406 -2.238281 16.640625 -1.1875 C 15.335938 -0.144531 13.609375 0.375 11.453125 0.375 C 9.390625 0.375 7.953125 -0.203125 7.140625 -1.359375 L 5.25 6.859375 L -3.09375 6.859375 Z M 10.1875 -6.015625 C 10.9375 -6.015625 11.5 -6.359375 11.875 -7.046875 C 12.25 -7.734375 12.59375 -8.734375 12.90625 -10.046875 L 16.28125 -24.640625 C 16.53125 -25.828125 16.625 -26.734375 16.5625 -27.359375 C 16.5 -27.984375 16.078125 -28.296875 15.296875 -28.296875 C 14.015625 -28.296875 13.09375 -27.109375 12.53125 -24.734375 L 9.0625 -9.671875 C 8.78125 -8.515625 8.703125 -7.613281 8.828125 -6.96875 C 8.953125 -6.332031 9.40625 -6.015625 10.1875 -6.015625 Z M 10.1875 -6.015625 "/></g></g></g><g fill="#545454" fill-opacity="1"><g transform="translate(344.65397, 215.891933)"><g><path d="M 6.390625 -34.359375 L 14.734375 -34.359375 L 14.3125 -32.53125 C 15.84375 -34 17.660156 -34.734375 19.765625 -34.734375 C 22.421875 -34.734375 24.066406 -33.84375 24.703125 -32.0625 C 25.347656 -30.28125 25.3125 -27.804688 24.59375 -24.640625 L 21.640625 -11.921875 C 21.015625 -9.234375 20.347656 -7.035156 19.640625 -5.328125 C 18.941406 -3.617188 17.941406 -2.238281 16.640625 -1.1875 C 15.335938 -0.144531 13.609375 0.375 11.453125 0.375 C 9.390625 0.375 7.953125 -0.203125 7.140625 -1.359375 L 5.25 6.859375 L -3.09375 6.859375 Z M 10.1875 -6.015625 C 10.9375 -6.015625 11.5 -6.359375 11.875 -7.046875 C 12.25 -7.734375 12.59375 -8.734375 12.90625 -10.046875 L 16.28125 -24.640625 C 16.53125 -25.828125 16.625 -26.734375 16.5625 -27.359375 C 16.5 -27.984375 16.078125 -28.296875 15.296875 -28.296875 C 14.015625 -28.296875 13.09375 -27.109375 12.53125 -24.734375 L 9.0625 -9.671875 C 8.78125 -8.515625 8.703125 -7.613281 8.828125 -6.96875 C 8.953125 -6.332031 9.40625 -6.015625 10.1875 -6.015625 Z M 10.1875 -6.015625 "/></g></g></g><g fill="#545454" fill-opacity="1"><g transform="translate(132.229829, 239.606065)"><g><path d="M 4.09375 0.15625 C 3.195312 0.15625 2.675781 -0.382812 2.53125 -1.46875 L 2.203125 0 L -1.1875 0 L 2.578125 -16.265625 L 5.96875 -16.265625 L 5.234375 -13.125 C 5.878906 -13.664062 6.554688 -13.9375 7.265625 -13.9375 C 8.328125 -13.9375 9.019531 -13.617188 9.34375 -12.984375 C 9.664062 -12.347656 9.6875 -11.4375 9.40625 -10.25 L 7.859375 -3.59375 C 7.609375 -2.46875 7.160156 -1.5625 6.515625 -0.875 C 5.878906 -0.1875 5.070312 0.15625 4.09375 0.15625 Z M 3.59375 -2.40625 C 3.820312 -2.40625 4 -2.476562 4.125 -2.625 C 4.25 -2.769531 4.34375 -2.953125 4.40625 -3.171875 C 4.476562 -3.390625 4.570312 -3.734375 4.6875 -4.203125 L 6 -9.9375 C 6.113281 -10.425781 6.15625 -10.789062 6.125 -11.03125 C 6.09375 -11.269531 5.929688 -11.390625 5.640625 -11.390625 C 5.328125 -11.390625 5.085938 -11.269531 4.921875 -11.03125 C 4.753906 -10.789062 4.617188 -10.441406 4.515625 -9.984375 L 3.171875 -4.203125 C 3.035156 -3.597656 2.984375 -3.144531 3.015625 -2.84375 C 3.046875 -2.550781 3.238281 -2.40625 3.59375 -2.40625 Z M 3.59375 -2.40625 "/></g></g></g><g fill="#545454" fill-opacity="1"><g transform="translate(141.656095, 239.606065)"><g><path d="M -0.96875 0.203125 L 0.625 0.203125 C 0.84375 0.203125 0.976562 0.109375 1.03125 -0.078125 C 1.039062 -0.160156 1.046875 -0.226562 1.046875 -0.28125 L 2.03125 -13.78125 L 5.171875 -13.78125 L 4.234375 -7.0625 L 3.75 -3.640625 L 4.890625 -7.0625 L 7.1875 -13.78125 L 10.359375 -13.78125 L 4.4375 0.71875 C 4.226562 1.257812 3.957031 1.65625 3.625 1.90625 C 3.289062 2.164062 2.832031 2.296875 2.25 2.296875 L -1.453125 2.296875 Z M -0.96875 0.203125 "/></g></g></g><g fill="#545454" fill-opacity="1"><g transform="translate(150.329754, 239.606065)"><g/></g></g><g fill="#545454" fill-opacity="1"><g transform="translate(154.732431, 239.606065)"><g><path d="M -1.28125 0 L 2.4375 -16.171875 L 5.5625 -16.171875 L 1.84375 0 Z M -1.28125 0 "/></g></g></g><g fill="#545454" fill-opacity="1"><g transform="translate(159.003414, 239.606065)"><g><path d="M -1.203125 0 L 2.5625 -16.265625 L 5.8125 -16.265625 L 4.140625 -9.03125 L 6.8125 -13.78125 L 10.21875 -13.78125 L 6.78125 -7.796875 L 7.609375 0 L 4.09375 0 L 3.5625 -6.5 L 2.046875 0 Z M -1.203125 0 "/></g></g></g><g fill="#545454" fill-opacity="1"><g transform="translate(168.241518, 239.606065)"><g><path d="M 2.921875 0.15625 C 1.492188 0.15625 0.5625 -0.234375 0.125 -1.015625 C -0.3125 -1.796875 -0.347656 -2.957031 0.015625 -4.5 L 1.296875 -10.03125 C 1.585938 -11.300781 2.171875 -12.269531 3.046875 -12.9375 C 3.921875 -13.601562 5.015625 -13.9375 6.328125 -13.9375 C 8.972656 -13.9375 10 -12.632812 9.40625 -10.03125 L 9.171875 -9.03125 C 8.941406 -8.03125 8.738281 -7.21875 8.5625 -6.59375 L 3.78125 -6.59375 L 3.171875 -3.921875 C 3.066406 -3.441406 3.03125 -3.066406 3.0625 -2.796875 C 3.101562 -2.523438 3.285156 -2.390625 3.609375 -2.390625 C 3.859375 -2.390625 4.050781 -2.460938 4.1875 -2.609375 C 4.332031 -2.765625 4.4375 -2.9375 4.5 -3.125 C 4.570312 -3.320312 4.644531 -3.609375 4.71875 -3.984375 L 5.046875 -5.328125 L 8.3125 -5.328125 L 8.125 -4.53125 C 7.757812 -2.925781 7.175781 -1.742188 6.375 -0.984375 C 5.582031 -0.222656 4.429688 0.15625 2.921875 0.15625 Z M 5.703125 -8.234375 L 6.109375 -10 C 6.335938 -10.988281 6.207031 -11.484375 5.71875 -11.484375 C 5.164062 -11.484375 4.773438 -10.988281 4.546875 -10 L 4.140625 -8.234375 Z M 5.703125 -8.234375 "/></g></g></g><g fill="#545454" fill-opacity="1"><g transform="translate(177.423193, 239.606065)"><g><path d="M 2.234375 -13.78125 L 5.53125 -13.78125 L 5.1875 -12.25 C 5.476562 -12.789062 5.863281 -13.207031 6.34375 -13.5 C 6.820312 -13.800781 7.363281 -13.953125 7.96875 -13.953125 L 7.328125 -11.203125 C 6.859375 -11.203125 6.328125 -11.132812 5.734375 -11 C 5.148438 -10.875 4.835938 -10.722656 4.796875 -10.546875 L 2.34375 0 L -0.9375 0 Z M 2.234375 -13.78125 "/></g></g></g><g fill="#545454" fill-opacity="1"><g transform="translate(183.895525, 239.606065)"><g/></g></g><g fill="#545454" fill-opacity="1"><g transform="translate(188.298201, 239.606065)"><g><path d="M 0.25 0 L 3.25 -13.0625 L 1.34375 -13.0625 L 2.046875 -16.171875 L 9.125 -16.171875 L 8.421875 -13.0625 L 6.5 -13.0625 L 3.484375 0 Z M 0.25 0 "/></g></g></g><g fill="#545454" fill-opacity="1"><g transform="translate(195.748891, 239.606065)"><g><path d="M 3.0625 0.15625 C 0.3125 0.15625 -0.734375 -1.269531 -0.078125 -4.125 L 1.203125 -9.65625 C 1.503906 -10.957031 2.109375 -11.992188 3.015625 -12.765625 C 3.929688 -13.546875 5.023438 -13.9375 6.296875 -13.9375 C 7.578125 -13.9375 8.5 -13.546875 9.0625 -12.765625 C 9.625 -11.992188 9.753906 -10.957031 9.453125 -9.65625 L 8.171875 -4.125 C 7.515625 -1.269531 5.8125 0.15625 3.0625 0.15625 Z M 3.65625 -2.390625 C 3.914062 -2.390625 4.128906 -2.484375 4.296875 -2.671875 C 4.460938 -2.859375 4.585938 -3.117188 4.671875 -3.453125 L 6.203125 -10.1875 C 6.398438 -10.988281 6.238281 -11.390625 5.71875 -11.390625 C 5.207031 -11.390625 4.859375 -10.988281 4.671875 -10.1875 L 3.125 -3.453125 C 3.050781 -3.117188 3.050781 -2.859375 3.125 -2.671875 C 3.207031 -2.484375 3.382812 -2.390625 3.65625 -2.390625 Z M 3.65625 -2.390625 "/></g></g></g><g fill="#545454" fill-opacity="1"><g transform="translate(205.099892, 239.606065)"><g><path d="M 2.84375 0.15625 C 0.113281 0.15625 -0.929688 -1.222656 -0.296875 -3.984375 L -0.015625 -5.078125 L 3.265625 -5.078125 L 2.921875 -3.46875 C 2.835938 -3.132812 2.835938 -2.882812 2.921875 -2.71875 C 3.015625 -2.550781 3.207031 -2.46875 3.5 -2.46875 C 3.9375 -2.46875 4.238281 -2.828125 4.40625 -3.546875 C 4.53125 -4.066406 4.519531 -4.476562 4.375 -4.78125 C 4.238281 -5.082031 3.984375 -5.40625 3.609375 -5.75 L 2.1875 -7.09375 C 1.675781 -7.5625 1.34375 -8.039062 1.1875 -8.53125 C 1.039062 -9.03125 1.078125 -9.734375 1.296875 -10.640625 C 1.460938 -11.335938 1.785156 -11.9375 2.265625 -12.4375 C 2.742188 -12.9375 3.316406 -13.3125 3.984375 -13.5625 C 4.660156 -13.8125 5.378906 -13.9375 6.140625 -13.9375 C 8.804688 -13.9375 9.832031 -12.601562 9.21875 -9.9375 L 9.171875 -9.671875 L 5.765625 -9.671875 L 5.890625 -10.203125 C 5.960938 -10.523438 5.96875 -10.800781 5.90625 -11.03125 C 5.851562 -11.269531 5.703125 -11.390625 5.453125 -11.390625 C 5.234375 -11.390625 5.046875 -11.320312 4.890625 -11.1875 C 4.742188 -11.0625 4.644531 -10.882812 4.59375 -10.65625 C 4.476562 -10.15625 4.582031 -9.765625 4.90625 -9.484375 L 6.609375 -8 C 7.210938 -7.457031 7.628906 -6.867188 7.859375 -6.234375 C 8.097656 -5.609375 8.113281 -4.8125 7.90625 -3.84375 C 7.601562 -2.5625 7.007812 -1.570312 6.125 -0.875 C 5.238281 -0.1875 4.144531 0.15625 2.84375 0.15625 Z M 2.84375 0.15625 "/></g></g></g><g fill="#545454" fill-opacity="1"><g transform="translate(214.036958, 239.606065)"><g><path d="M 3.203125 0.15625 C 1.691406 0.15625 0.691406 -0.222656 0.203125 -0.984375 C -0.285156 -1.753906 -0.347656 -2.929688 0.015625 -4.515625 L 1 -8.78125 C 1.269531 -9.96875 1.617188 -10.929688 2.046875 -11.671875 C 2.472656 -12.421875 3.035156 -12.984375 3.734375 -13.359375 C 4.429688 -13.742188 5.316406 -13.9375 6.390625 -13.9375 C 7.578125 -13.9375 8.46875 -13.628906 9.0625 -13.015625 C 9.664062 -12.398438 9.835938 -11.539062 9.578125 -10.4375 L 9.109375 -8.328125 L 5.765625 -8.328125 L 6.1875 -10.265625 C 6.28125 -10.628906 6.296875 -10.90625 6.234375 -11.09375 C 6.179688 -11.289062 6.007812 -11.390625 5.71875 -11.390625 C 5.175781 -11.390625 4.816406 -11.007812 4.640625 -10.25 L 3.109375 -3.5625 C 3.023438 -3.25 3.023438 -2.976562 3.109375 -2.75 C 3.191406 -2.53125 3.363281 -2.421875 3.625 -2.421875 C 3.894531 -2.421875 4.117188 -2.523438 4.296875 -2.734375 C 4.484375 -2.953125 4.609375 -3.234375 4.671875 -3.578125 L 5.1875 -5.890625 L 8.546875 -5.890625 L 7.984375 -3.484375 C 7.710938 -2.347656 7.140625 -1.457031 6.265625 -0.8125 C 5.390625 -0.164062 4.367188 0.15625 3.203125 0.15625 Z M 3.203125 0.15625 "/></g></g></g><g fill="#545454" fill-opacity="1"><g transform="translate(223.275062, 239.606065)"><g><path d="M 1.5625 0.15625 C 0.488281 0.15625 -0.160156 -0.195312 -0.390625 -0.90625 C -0.617188 -1.625 -0.582031 -2.640625 -0.28125 -3.953125 C -0.03125 -5.035156 0.296875 -5.863281 0.703125 -6.4375 C 1.117188 -7.019531 1.609375 -7.441406 2.171875 -7.703125 C 2.742188 -7.972656 3.582031 -8.273438 4.6875 -8.609375 L 5.671875 -8.90625 L 5.671875 -8.9375 L 5.984375 -10.3125 C 6.066406 -10.675781 6.054688 -10.957031 5.953125 -11.15625 C 5.859375 -11.351562 5.710938 -11.453125 5.515625 -11.453125 C 5.335938 -11.453125 5.160156 -11.367188 4.984375 -11.203125 C 4.816406 -11.035156 4.703125 -10.816406 4.640625 -10.546875 L 4.453125 -9.71875 L 1.265625 -9.71875 L 1.359375 -10.171875 C 1.671875 -11.523438 2.207031 -12.488281 2.96875 -13.0625 C 3.738281 -13.644531 4.835938 -13.9375 6.265625 -13.9375 C 7.410156 -13.9375 8.269531 -13.632812 8.84375 -13.03125 C 9.425781 -12.4375 9.585938 -11.59375 9.328125 -10.5 L 6.921875 0 L 3.65625 0 L 4.03125 -1.640625 C 3.726562 -1.078125 3.363281 -0.632812 2.9375 -0.3125 C 2.507812 0 2.050781 0.15625 1.5625 0.15625 Z M 3.4375 -2.40625 C 3.6875 -2.40625 3.890625 -2.507812 4.046875 -2.71875 C 4.210938 -2.925781 4.328125 -3.179688 4.390625 -3.484375 L 5.265625 -7.328125 C 4.742188 -7.140625 4.332031 -6.898438 4.03125 -6.609375 C 3.726562 -6.316406 3.519531 -5.914062 3.40625 -5.40625 L 2.984375 -3.640625 C 2.796875 -2.816406 2.945312 -2.40625 3.4375 -2.40625 Z M 3.4375 -2.40625 "/></g></g></g><g fill="#545454" fill-opacity="1"><g transform="translate(232.362656, 239.606065)"><g><path d="M 2.25 -13.78125 L 5.546875 -13.78125 L 5.140625 -12.03125 C 5.398438 -12.59375 5.738281 -13.050781 6.15625 -13.40625 C 6.582031 -13.757812 7.078125 -13.9375 7.640625 -13.9375 C 8.566406 -13.9375 9.1875 -13.648438 9.5 -13.078125 C 9.8125 -12.503906 9.851562 -11.691406 9.625 -10.640625 L 7.171875 0 L 3.9375 0 L 6.296875 -10.296875 C 6.359375 -10.597656 6.351562 -10.851562 6.28125 -11.0625 C 6.21875 -11.28125 6.0625 -11.390625 5.8125 -11.390625 C 5.476562 -11.390625 5.222656 -11.234375 5.046875 -10.921875 C 4.867188 -10.617188 4.71875 -10.210938 4.59375 -9.703125 L 2.375 0 L -0.921875 0 Z M 2.25 -13.78125 "/></g></g></g><g fill="#545454" fill-opacity="1"><g transform="translate(241.751289, 239.606065)"><g><path d="M 3.0625 0.15625 C 0.3125 0.15625 -0.734375 -1.269531 -0.078125 -4.125 L 1.203125 -9.65625 C 1.503906 -10.957031 2.109375 -11.992188 3.015625 -12.765625 C 3.929688 -13.546875 5.023438 -13.9375 6.296875 -13.9375 C 7.578125 -13.9375 8.5 -13.546875 9.0625 -12.765625 C 9.625 -11.992188 9.753906 -10.957031 9.453125 -9.65625 L 8.171875 -4.125 C 7.515625 -1.269531 5.8125 0.15625 3.0625 0.15625 Z M 3.65625 -2.390625 C 3.914062 -2.390625 4.128906 -2.484375 4.296875 -2.671875 C 4.460938 -2.859375 4.585938 -3.117188 4.671875 -3.453125 L 6.203125 -10.1875 C 6.398438 -10.988281 6.238281 -11.390625 5.71875 -11.390625 C 5.207031 -11.390625 4.859375 -10.988281 4.671875 -10.1875 L 3.125 -3.453125 C 3.050781 -3.117188 3.050781 -2.859375 3.125 -2.671875 C 3.207031 -2.484375 3.382812 -2.390625 3.65625 -2.390625 Z M 3.65625 -2.390625 "/></g></g></g></svg>